<svg xmlns="http://www.w3.org/2000/svg" width="125.348" height="33.019" viewBox="0 0 125.348 33.019"><defs><style>.a{fill:#e0004d;}</style></defs><rect class="a" width="2.612" height="5.927" transform="translate(97.521 0)"/><path class="a" d="M205.176,58.622a8.5,8.5,0,1,1,0-6.688l2.606-.865a11.237,11.237,0,1,0,0,8.419Z" transform="translate(-136.939 -33.624)"/><path class="a" d="M110.8,17.17a11.212,11.212,0,0,0-8.626,4.037V6.748H99.563V39.767h2.611v-4.16A11.236,11.236,0,1,0,110.8,17.17m0,19.734a8.5,8.5,0,1,1,8.5-8.5,8.5,8.5,0,0,1-8.5,8.5" transform="translate(-74.556 -6.748)"/><path class="a" d="M286.773,6.748V21.207a11.237,11.237,0,1,0,0,14.4v4.16h2.611V6.748ZM278.147,36.9a8.5,8.5,0,1,1,8.5-8.5,8.5,8.5,0,0,1-8.5,8.5" transform="translate(-195.157 -6.748)"/><path class="a" d="M29.9,44.058v4.037a11.237,11.237,0,1,0,0,14.4v4.16h2.611v-22.6ZM21.276,63.792a8.5,8.5,0,1,1,8.5-8.5,8.5,8.5,0,0,1-8.5,8.5" transform="translate(-10.039 -33.636)"/><rect class="a" width="2.612" height="22.597" transform="translate(97.521 10.422)"/><path class="a" d="M390.285,44.057a10.831,10.831,0,0,0-8.38,3.908V44.057h-2.611v22.6H381.9V53.909a8.5,8.5,0,0,1,8.38-7.112,8.627,8.627,0,0,1,8.6,7.764V66.654H401.5V54.561a11.236,11.236,0,0,0-11.211-10.5" transform="translate(-276.147 -33.635)"/></svg>