<svg xmlns="http://www.w3.org/2000/svg" width="139.463" height="13.923" viewBox="0 0 139.463 13.923"><defs><style>.a{fill:#316094;}</style></defs><rect class="a" width="13.317" height="1.902" transform="translate(74.652 0.312)"/><rect class="a" width="13.317" height="1.902" transform="translate(74.652 4.116)"/><rect class="a" width="13.317" height="1.902" transform="translate(74.652 7.921)"/><rect class="a" width="13.317" height="1.902" transform="translate(74.652 11.726)"/><path class="a" d="M71.87,24.29h5.3a3.549,3.549,0,0,1,3.8,3.395,2.678,2.678,0,0,1-1.706,2.673,3.131,3.131,0,0,1,2.673,3.3,3.884,3.884,0,0,1-4.051,3.936H71.87ZM76.692,29.6a1.394,1.394,0,1,0,.016-2.788H74.756V29.6Zm.607,5.461a1.641,1.641,0,0,0,1.722-1.624,1.587,1.587,0,0,0-1.738-1.558H74.756v3.2H77.3Z" transform="translate(22.756 -23.978)"/><rect class="a" width="2.936" height="13.317" transform="translate(108.14 0.312)"/><path class="a" d="M91.2,24.16a7.035,7.035,0,0,1,5.379,2.476l-2,1.706A4.5,4.5,0,0,0,91.2,26.833a4.19,4.19,0,1,0,0,8.38A4.492,4.492,0,0,0,94.6,33.688l2,1.706A7.078,7.078,0,0,1,91.187,37.9,6.878,6.878,0,1,1,91.2,24.16" transform="translate(30.532 -24.062)"/><path class="a" d="M93.59,24.29h9.085v2.673h-6.15v2.493h5.756V32.08H96.526v2.837h6.281v2.69H93.59Z" transform="translate(36.657 -23.978)"/><path class="a" d="M14.17,24.24h4A3.3,3.3,0,0,1,21.6,27.586a2.8,2.8,0,0,1-1.82,2.8,3.314,3.314,0,0,1,2.788,3.477A3.783,3.783,0,0,1,18.68,37.7H14.17V24.24Zm3.936,5.789a2.436,2.436,0,1,0,.033-4.871H15.187v4.871Zm.508,6.74a2.912,2.912,0,1,0-.066-5.822H15.17v5.806h3.444Z" transform="translate(-14.17 -24.01)"/><path class="a" d="M26.267,24.24h.787L32.581,37.7H31.5l-1.509-3.674H23.3L21.822,37.7H20.74Zm3.346,8.872L26.644,25.8l-2.968,7.314Z" transform="translate(-9.965 -24.01)"/><path class="a" d="M30.08,24.24h.869l8.544,11.644V24.24h1V37.7h-.82L31.08,25.978V37.7h-1Z" transform="translate(-3.988 -24.01)"/><path class="a" d="M45.7,24.1a6.735,6.735,0,0,1,5.117,2.263l-.672.64A5.745,5.745,0,0,0,45.7,25.035a5.837,5.837,0,0,0-5.937,6.035A5.833,5.833,0,0,0,45.7,37.089a5.7,5.7,0,0,0,4.461-2l.689.64a6.756,6.756,0,0,1-5.166,2.3A6.962,6.962,0,1,1,45.7,24.1" transform="translate(1.548 -24.1)"/><path class="a" d="M54.691,24.1a6.962,6.962,0,1,1-6.921,6.97,6.831,6.831,0,0,1,6.921-6.97m0,12.972a5.812,5.812,0,0,0,5.9-6,5.929,5.929,0,1,0-11.857,0,5.833,5.833,0,0,0,5.953,6" transform="translate(7.333 -24.1)"/></svg>