<svg xmlns="http://www.w3.org/2000/svg" width="120.513" height="30.137" viewBox="0 0 120.513 30.137"><defs><style>.a{fill:#1d1d1b;}.b{fill:#008e39;}.c{fill:gold;}.d{fill:#e52c37;}.e{fill:#2d6bb2;}</style></defs><rect class="a" width="3.982" height="17.192" transform="translate(63.781 10.367)"/><g transform="translate(79.017 18.86)"><path class="a" d="M382,91.62l.46-.138A2.455,2.455,0,0,0,384.693,93a1.783,1.783,0,0,0,2.025-1.841c0-1.174-.99-1.841-2.071-2.255-1.128-.46-2.371-1.036-2.371-2.44,0-1.059.828-1.864,2.325-1.864a2.246,2.246,0,0,1,2.232,1.4l-.437.138a1.789,1.789,0,0,0-1.818-1.1c-1.128,0-1.818.552-1.818,1.473,0,1.1,1.059,1.565,2.094,2,1.082.437,2.348,1.128,2.348,2.716a2.225,2.225,0,0,1-2.509,2.255A3.025,3.025,0,0,1,382,91.62Z" transform="translate(-382 -84.6)"/><path class="a" d="M411.9,97.768c0-2.071,1.059-3.268,2.509-3.268,1.335,0,2.255.99,2.255,3.268v.138h-4.281c.069,1.864.829,2.716,2.071,2.716a2.366,2.366,0,0,0,1.473-.529l.253.322a2.816,2.816,0,0,1-1.772.644C412.821,101.059,411.9,99.793,411.9,97.768Zm4.327-.276c-.023-2.094-1.059-2.6-1.8-2.6-1.1,0-1.933.783-2.025,2.6Z" transform="translate(-405.019 -92.222)"/><path class="a" d="M440.926,103.031c1.841-.092,2.532-.76,2.532-1.979V99.786a1.982,1.982,0,0,1-1.864,1.174c-1.289,0-2.394-1.1-2.394-3.291,0-2.048.99-3.268,2.44-3.268a2.031,2.031,0,0,1,1.818,1.059v-.9h.437V101.1c0,1.8-1.381,2.232-2.739,2.325Zm2.532-3.844v-3.13a2.077,2.077,0,0,0-1.818-1.2c-1.266,0-1.979,1.013-1.979,2.831s.875,2.831,1.933,2.831A2.15,2.15,0,0,0,443.458,99.187Z" transform="translate(-426.035 -92.145)"/><path class="a" d="M473.667,100.3a1.923,1.923,0,0,1-1.841,1.2c-1.312,0-2.025-.829-2.025-2.578V95.1h.437v3.913c0,1.519.644,2.071,1.611,2.071,1.036,0,1.818-.621,1.818-2.371V95.1h.437v6.26h-.437Z" transform="translate(-449.593 -92.683)"/><path class="a" d="M499,94.638h.437v1.335a1.98,1.98,0,0,1,1.841-1.473,1.175,1.175,0,0,1,.829.253l-.069.437a1.652,1.652,0,0,0-.829-.207c-.76,0-1.772.644-1.772,2.44V100.9H499Z" transform="translate(-472.072 -92.222)"/><path class="a" d="M517,97.791c0-2.048.99-3.291,2.463-3.291s2.463,1.2,2.463,3.268c0,2.048-.99,3.291-2.463,3.291S517,99.863,517,97.791Zm4.465-.023c0-1.772-.69-2.831-2-2.831-1.289,0-2,1.013-2,2.831,0,1.772.69,2.831,2,2.831C520.752,100.6,521.465,99.563,521.465,97.768Z" transform="translate(-485.93 -92.222)"/><path class="a" d="M545.523,100.116l.345-.3a2.258,2.258,0,0,0,1.611.829c.874,0,1.427-.391,1.427-1.2,0-.875-.828-1.289-1.7-1.634-1.036-.368-1.7-.829-1.7-1.772,0-.875.69-1.542,1.841-1.542a2.45,2.45,0,0,1,1.8.783l-.322.276a2.145,2.145,0,0,0-1.473-.644c-.875,0-1.381.46-1.381,1.128,0,.806.713,1.082,1.519,1.4,1.059.437,1.887.806,1.887,1.979,0,.944-.668,1.611-1.864,1.611A2.579,2.579,0,0,1,545.523,100.116Z" transform="translate(-507.87 -92.222)"/></g><path class="a" d="M204.227,20.9a2.186,2.186,0,1,0,2.186,2.186,2.2,2.2,0,0,0-2.186-2.186m-10.2,10.081a4.8,4.8,0,0,1,3.567,1.657l2.739-2.877a8.527,8.527,0,0,0-6.26-2.67,8.659,8.659,0,0,0-8.585,8.723v.046a8.655,8.655,0,0,0,8.562,8.723A8.385,8.385,0,0,0,200.2,42l-2.831-2.739a4.6,4.6,0,0,1-3.268,1.4,4.749,4.749,0,0,1-4.6-4.856v-.046a4.6,4.6,0,0,1,4.534-4.787m-12.313,1.542a5.865,5.865,0,0,0,1.657-4.143c0-3.475-1.841-6.329-7.319-6.329H168.3V44.26h7.894c5.846,0,7.848-2.969,7.848-6.7a5.865,5.865,0,0,0-2.325-5.04M172.3,25.986h3.844c2.486,0,2.9,1.174,2.9,2.394,0,1.174-.506,2.44-2.67,2.44h-4.1V25.986Zm4.028,14.338H172.3v-5.57h4.1c2.463,0,3.383.9,3.383,2.808-.023,1.381-.6,2.762-3.452,2.762" transform="translate(-138.466 -16.701)"/><path class="b" d="M117.96,73.738s3.36.9,2.3,5.616h0a2.213,2.213,0,0,0-.046.783,2.53,2.53,0,1,0,5.04-.437c-.23-3.291-6.421-7.3-7.25-7.2,0,0-.483.023-.506.644a.6.6,0,0,0,.46.6" transform="translate(-99.358 -56.42)"/><path class="c" d="M84.746,84.223s2.186.575,1.519,3.659h0s-.713,2.9-5.363,3.682c-5.27.875-5.178-1.059-5.178-1.059-.046-.967-.414-2.117,4.81-5.293,0,0,2.624-1.611,4.212-.99" transform="translate(-67.18 -65.34)"/><path class="d" d="M38.68,43.786A3.1,3.1,0,0,0,41.3,46.755a5.643,5.643,0,0,0,.621.046,3.106,3.106,0,0,0,2.992-3.222c0-2.255,1.013-3.936,3.061-5.5a80.382,80.382,0,0,1,8.193-5.086c4.626-2.463,7.618-5.363,8.285-7.71l.023-.069a2.392,2.392,0,0,0,.092-.9,3.1,3.1,0,0,0-2.624-2.969,5.644,5.644,0,0,0-.621-.046,3.106,3.106,0,0,0-2.992,3.222c0,2.371-1.427,3.936-3.36,5.777a38.479,38.479,0,0,1-7.917,4.81c-4.626,2.463-7.618,5.363-8.285,7.71l-.023.069a3.937,3.937,0,0,0-.069.9" transform="translate(-38.673 -17.009)"/><path class="e" d="M59.956,7.246c.253,4.189,6.053,9.045,9.643,11a4.163,4.163,0,0,0,2.67.506c1.634-.736-.115-1.381-.115-1.381S66.515,15.83,68.334,7.89h0a4.892,4.892,0,0,0,.115-1.312,4.259,4.259,0,1,0-8.493.667" transform="translate(-55.048 -2.655)"/></svg>