<svg xmlns="http://www.w3.org/2000/svg" width="102.401" height="53.547" viewBox="0 0 102.401 53.547"><defs><style>.a{fill:#095aa5;}.b{fill:#ff690a;}</style></defs><path class="a" d="M218.8,211.21a26.664,26.664,0,0,1-49.87,0h2.911a23.925,23.925,0,0,0,43.992,0H218.8Z" transform="translate(-142.758 -174.882)"/><path class="a" d="M216.862,52.01a24.153,24.153,0,0,0-2.683-4.681,4.356,4.356,0,0,1-1.446.263,4.111,4.111,0,0,1-3.846-5.562A23.92,23.92,0,0,0,172.826,52h-2.888A26.6,26.6,0,0,1,210.6,39.939a4.063,4.063,0,0,1,2.169-.615,4.14,4.14,0,0,1,4.14,4.139,4.084,4.084,0,0,1-.586,2.126A26.616,26.616,0,0,1,219.788,52l-2.926.008Z" transform="translate(-143.558 -34.764)"/><path class="b" d="M366.958,68.124a2.262,2.262,0,1,1,2.26,2.259,2.261,2.261,0,0,1-2.26-2.259" transform="translate(-300.014 -59.46)"/><path class="b" d="M366.78,67.951h.045a2.215,2.215,0,1,1,.649,1.566,2.211,2.211,0,0,1-.649-1.566h-.091a2.306,2.306,0,1,0,2.3-2.306,2.305,2.305,0,0,0-2.3,2.306h.046Z" transform="translate(-299.836 -59.287)"/><path class="a" d="M43.532,137.013a5.645,5.645,0,0,1,1.96-1.3,5.947,5.947,0,0,1,2.252-.45,5.751,5.751,0,0,1,2.225.45,5.579,5.579,0,0,1,1.987,1.3l.822.82-1.643,1.67-.848-.822a3.518,3.518,0,0,0-1.192-.794,3.585,3.585,0,0,0-2.7,0,3.522,3.522,0,0,0-1.193.794,3.26,3.26,0,0,0-.794,1.165,3.562,3.562,0,0,0,0,2.7,3.515,3.515,0,0,0,.794,1.193,3.475,3.475,0,0,0,2.544,1.059,3.678,3.678,0,0,0,1.378-.265,3.273,3.273,0,0,0,1.166-.794l.848-.823,1.643,1.669-.822.823a5.93,5.93,0,0,1-1.987,1.323,6.077,6.077,0,0,1-2.225.425,6.287,6.287,0,0,1-2.252-.425,6.013,6.013,0,0,1-1.96-1.323,5.676,5.676,0,0,1-1.3-1.963,6.08,6.08,0,0,1-.423-2.225,6.163,6.163,0,0,1,.423-2.253,5.659,5.659,0,0,1,1.3-1.96" transform="translate(-41.81 -114.573)"/><path class="a" d="M105.435,138.653a3.544,3.544,0,0,0-.689,4.107l.953-.954,1.378-1.377,1.4-1.4q.691-.662,1.061-1.033a3.576,3.576,0,0,0-2.147-.344,3.39,3.39,0,0,0-1.958,1m5.909,4.266,1.669,1.669-.821.822a5.941,5.941,0,0,1-8.426,0,5.69,5.69,0,0,1-1.3-1.961,6.29,6.29,0,0,1-.425-2.253,6.092,6.092,0,0,1,.425-2.226,5.9,5.9,0,0,1,3.258-3.259,5.974,5.974,0,0,1,2.251-.45,5.767,5.767,0,0,1,2.226.45,5.63,5.63,0,0,1,1.988,1.3l.821.821-6.6,6.6a3.484,3.484,0,0,0,4.107-.689l.826-.824Z" transform="translate(-89.644 -114.569)"/><path class="a" d="M162.259,141.2a5.829,5.829,0,0,1,.45-2.3,6.092,6.092,0,0,1,1.273-1.881,5.851,5.851,0,0,1,1.906-1.273,5.708,5.708,0,0,1,2.307-.476,5.579,5.579,0,0,1,2.306.476,5.858,5.858,0,0,1,1.907,1.273,5.957,5.957,0,0,1,1.748,4.185v5.963H171.8V141.2a3.262,3.262,0,0,0-.291-1.377,3.6,3.6,0,0,0-1.908-1.908,3.544,3.544,0,0,0-2.808,0,3.52,3.52,0,0,0-1.139.769,3.724,3.724,0,0,0-.768,1.14,3.559,3.559,0,0,0-.264,1.377v5.963h-2.358V141.2Z" transform="translate(-137.46 -114.575)"/><path class="a" d="M228.7,137.013a5.655,5.655,0,0,1,1.961-1.3,5.943,5.943,0,0,1,2.252-.45,5.752,5.752,0,0,1,2.226.45,5.592,5.592,0,0,1,1.987,1.3l.822.82-1.643,1.67-.848-.822a3.523,3.523,0,0,0-1.192-.794,3.588,3.588,0,0,0-2.7,0,3.526,3.526,0,0,0-1.192.794,3.285,3.285,0,0,0-.8,1.165,3.583,3.583,0,0,0,0,2.7,3.545,3.545,0,0,0,.8,1.193,3.473,3.473,0,0,0,2.544,1.059,3.679,3.679,0,0,0,1.377-.265,3.274,3.274,0,0,0,1.167-.794l.848-.823,1.643,1.669-.822.823a5.945,5.945,0,0,1-1.987,1.323,6.077,6.077,0,0,1-2.226.425,6.282,6.282,0,0,1-2.252-.425,6.025,6.025,0,0,1-1.961-1.323,5.658,5.658,0,0,1-1.3-1.963,6.061,6.061,0,0,1-.425-2.225,6.14,6.14,0,0,1,.425-2.253,5.621,5.621,0,0,1,1.3-1.96" transform="translate(-188.858 -114.573)"/><path class="a" d="M289.54,141.2a3.738,3.738,0,0,0,.265,1.406,3.464,3.464,0,0,0,1.934,1.933,3.6,3.6,0,0,0,3.948-.768,3.763,3.763,0,0,0,1.059-2.572,3.271,3.271,0,0,0-.291-1.377,3.605,3.605,0,0,0-1.909-1.907,3.675,3.675,0,0,0-3.974.769,3.686,3.686,0,0,0-.768,1.138,3.509,3.509,0,0,0-.266,1.377m-2.333,0a5.833,5.833,0,0,1,.45-2.3,6.108,6.108,0,0,1,1.272-1.881,5.833,5.833,0,0,1,1.908-1.272,5.676,5.676,0,0,1,2.306-.477,5.556,5.556,0,0,1,2.3.477,5.836,5.836,0,0,1,1.908,1.272A5.963,5.963,0,0,1,299.1,141.2a5.668,5.668,0,0,1-.477,2.306,5.855,5.855,0,0,1-1.271,1.909,6.232,6.232,0,0,1-1.908,1.3,5.839,5.839,0,0,1-2.3.45,5.961,5.961,0,0,1-2.306-.45,6.231,6.231,0,0,1-1.908-1.3,6.469,6.469,0,0,1-1.272-1.909,5.994,5.994,0,0,1-.449-2.306" transform="translate(-236.683 -114.577)"/><path class="a" d="M362.677,135.27v2.359H355.5a1.177,1.177,0,0,0-1.193,1.191,1.241,1.241,0,0,0,.345.874,1.149,1.149,0,0,0,.848.344h4.769a3.25,3.25,0,0,1,1.377.292,3.324,3.324,0,0,1,1.14.742,3.188,3.188,0,0,1,.769,1.138,3.288,3.288,0,0,1,.291,1.379,3.621,3.621,0,0,1-1.06,2.542,3.686,3.686,0,0,1-1.14.769,3.529,3.529,0,0,1-1.377.266h-7.154v-2.359h7.154a1.18,1.18,0,0,0,1.219-1.218,1.154,1.154,0,0,0-.345-.848,1.186,1.186,0,0,0-.874-.345H355.5a3.344,3.344,0,0,1-2.517-1.033,4.2,4.2,0,0,1-.769-1.139,3.744,3.744,0,0,1-.264-1.4,3.54,3.54,0,0,1,.264-1.378,3.717,3.717,0,0,1,.769-1.14,3.631,3.631,0,0,1,2.517-1.033h7.176Z" transform="translate(-288.095 -114.577)"/><path class="a" d="M428.565,135.27V141.2a5.667,5.667,0,0,1-.477,2.306,5.849,5.849,0,0,1-1.271,1.909,6.194,6.194,0,0,1-1.908,1.3,5.824,5.824,0,0,1-2.3.452,5.95,5.95,0,0,1-2.3-.452,6.181,6.181,0,0,1-1.908-1.3,6.477,6.477,0,0,1-1.272-1.909,5.953,5.953,0,0,1-.451-2.306V135.27h2.358V141.2a3.754,3.754,0,0,0,.265,1.406,4.07,4.07,0,0,0,.768,1.165,4.2,4.2,0,0,0,1.14.769,3.6,3.6,0,0,0,3.948-.769,3.771,3.771,0,0,0,1.059-2.57V135.27h2.357Z" transform="translate(-339.49 -114.577)"/><path class="a" d="M487.349,126.413a3.566,3.566,0,0,0,1.379-.264,3.734,3.734,0,0,0,1.138-.769,3.766,3.766,0,0,0,1.06-2.57v-3.575h-3.577a3.753,3.753,0,0,0-2.569,1.059,3.682,3.682,0,0,0-.769,1.138,3.553,3.553,0,0,0-.265,1.378,3.744,3.744,0,0,0,.265,1.406,3.48,3.48,0,0,0,1.934,1.934,3.722,3.722,0,0,0,1.4.264m5.936-14.3v10.7a5.677,5.677,0,0,1-.478,2.307,6.062,6.062,0,0,1-3.152,3.2,6.109,6.109,0,0,1-4.61,0,6.165,6.165,0,0,1-3.206-3.2,5.967,5.967,0,0,1-.451-2.307,5.936,5.936,0,0,1,3.657-5.458,5.7,5.7,0,0,1,2.3-.476h3.577v-4.769h2.359Z" transform="translate(-390.884 -96.183)"/></svg>