<svg xmlns="http://www.w3.org/2000/svg" width="109.814" height="39.669" viewBox="0 0 109.814 39.669"><defs><style>.a{fill:#ef3829;}</style></defs><path class="a" d="M136.183,31.2a10.257,10.257,0,0,0-7.6,3.235A10.578,10.578,0,0,0,125.4,42.21a10.364,10.364,0,0,0,3.178,7.718,10.257,10.257,0,0,0,7.6,3.235,10.948,10.948,0,0,0,10.9-10.953,10.8,10.8,0,0,0-3.178-7.775A10.506,10.506,0,0,0,136.183,31.2Zm4.086,15.039a5.359,5.359,0,0,1-4.029,1.7,5.539,5.539,0,0,1-4.029-1.7,5.8,5.8,0,0,1-1.7-4.086,5.608,5.608,0,0,1,1.7-4.086,5.114,5.114,0,0,1,4.029-1.646,5.312,5.312,0,0,1,4.086,1.646,5.792,5.792,0,0,1,1.646,4.086A6.054,6.054,0,0,1,140.269,46.239Z" transform="translate(-54.234 -13.494)"/><path class="a" d="M13.393,26.864a8.14,8.14,0,0,1,4.483,1.362,8.771,8.771,0,0,1,2.951,3.462h5.448a13.088,13.088,0,0,0-4.71-7.151A12.683,12.683,0,0,0,13.393,21.7a12.564,12.564,0,0,0-9.421,3.973A13.026,13.026,0,0,0,0,35.264a13.243,13.243,0,0,0,3.973,9.648,12.849,12.849,0,0,0,9.477,3.916,12.953,12.953,0,0,0,8.172-2.781,13.839,13.839,0,0,0,4.71-7.151H20.884a9.18,9.18,0,0,1-2.951,3.462,8.417,8.417,0,0,1-4.483,1.305A7.968,7.968,0,0,1,7.6,41.222a7.709,7.709,0,0,1-2.384-5.9,7.709,7.709,0,0,1,2.384-5.9A7.539,7.539,0,0,1,13.393,26.864Z" transform="translate(0 -9.385)"/><path class="a" d="M80.963,32.458A11.975,11.975,0,0,0,74.891,31.1c-3.519-.057-5.959.908-7.378,2.781a7.87,7.87,0,0,0-1.476,4.54h5.221A3.609,3.609,0,0,1,72,36.488a3.233,3.233,0,0,1,2.781-1.022,4.763,4.763,0,0,1,2.554.511c.624.284.851.908.908,1.759a1.716,1.716,0,0,1-1.192,1.589l-4.029.624a11.308,11.308,0,0,0-4.483,1.362c-1.93,1.135-2.894,3.008-2.838,5.675a5.662,5.662,0,0,0,1.759,4.483,6.754,6.754,0,0,0,4.256,1.476c2.838-.057,5.108-.738,6.7-2.157v2.157h5.221V37.623C83.574,35.126,82.666,33.366,80.963,32.458ZM78.069,44.433c0,1.816-.511,3.065-1.476,3.746a5.668,5.668,0,0,1-3.235,1.078,2.976,2.976,0,0,1-1.873-.624,2.5,2.5,0,0,1-.738-2.043A2.62,2.62,0,0,1,72,44.206a6.673,6.673,0,0,1,2.44-.681l2.611-.681,1.022-.568Z" transform="translate(-28.412 -13.447)"/><rect class="a" width="5.221" height="27.184" transform="translate(28.943 12.315)"/><path class="a" d="M114.012,31.414l-1.986.568a8.31,8.31,0,0,0-3.689,2.951V32.265l-4.937-.057V53.092h5.164V43.1a7.592,7.592,0,0,1,.681-3.689,4.681,4.681,0,0,1,1.816-1.986,4.945,4.945,0,0,1,2.838-.908l1.589.114-.057-5.335Z" transform="translate(-44.719 -13.537)"/><path class="a" d="M171.942,4.6,159.4,17.2l3.292,3.292,12.542-12.6Z" transform="translate(-68.939 -1.989)"/><rect class="a" width="4.654" height="13.507" transform="translate(80.246)"/><rect class="a" width="13.791" height="4.654" transform="translate(96.023 23.722)"/></svg>