<svg xmlns="http://www.w3.org/2000/svg" width="132.511" height="25.012" viewBox="0 0 132.511 25.012"><defs><style>.a{fill:#03a9f4;}</style></defs><path class="a" d="M4.789,12.506A3.991,3.991,0,1,1,8.78,16.5a3.99,3.99,0,0,1-3.991-3.991Zm15.965-.036a12.548,12.548,0,0,1-3.634,8.864,12.42,12.42,0,0,1-8.809,3.678H.555a.537.537,0,0,1-.418-.193A.563.563,0,0,1,0,24.37a6.18,6.18,0,0,1,6.081-5.21H8.311a6.667,6.667,0,0,0,6.59-6.113c.016-.181.023-.361.023-.61a2.679,2.679,0,0,0-.018-.392A6.684,6.684,0,0,0,8.23,5.855H6.092a6.113,6.113,0,0,1-4.354-1.8A6.261,6.261,0,0,1,.014.648.575.575,0,0,1,.136.195.56.56,0,0,1,.56,0H8.186A12.556,12.556,0,0,1,20.754,12.47ZM87.9,20.055a5.484,5.484,0,0,1,1.866,3.312.5.5,0,0,1-.484.581H82.357a11.141,11.141,0,1,1,.112-22.282h6.815a.489.489,0,0,1,.481.567,5.566,5.566,0,0,1-1.537,3.026,5.46,5.46,0,0,1-3.887,1.614H82.433a5.969,5.969,0,0,0-5.966,5.514,2.929,2.929,0,0,0-.014.361,5.335,5.335,0,0,0,.018.541,5.946,5.946,0,0,0,5.889,5.446h1.979A5.484,5.484,0,0,1,87.9,20.055ZM132.2,1.62c.414,0,.293.292.293.292l-8.176,21.335a.691.691,0,0,1-.643.442h-3.567a.689.689,0,0,1-.643-.444L111.334,1.9a.2.2,0,0,1,.189-.283h4.919a.457.457,0,0,1,.479.352l4.96,14.843s4.566-13.676,4.981-14.835a.486.486,0,0,1,.526-.36H132.2ZM24.48,1.965a.345.345,0,0,1,.344-.345h4.548a.346.346,0,0,1,.344.345V23.347a.346.346,0,0,1-.337.345H24.823a.345.345,0,0,1-.343-.345V1.964ZM108.995,1.6V1.6a.346.346,0,0,1,.343.345v3.9a.346.346,0,0,1-.335.345h-5.658V23.331a.344.344,0,0,1-.344.345H98.447a.345.345,0,0,1-.343-.345V6.186H92.466a.346.346,0,0,1-.344-.345V1.948a.346.346,0,0,1,.344-.345h16.528ZM68.768,6.2H60.817v4.456h5.651a.346.346,0,0,1,.344.345v3.157a.346.346,0,0,1-.344.345H60.817v4.58h7.919a.384.384,0,0,1,.381.384v3.815a.382.382,0,0,1-.381.382h-12.8a.345.345,0,0,1-.343-.345V1.988a.361.361,0,0,1,.09-.285c.016-.026.072-.083.243-.083H68.767a.346.346,0,0,1,.343.345V5.857a.346.346,0,0,1-.343.345ZM52.175,23.188l.006-.006a.346.346,0,0,1-.3.507H46.909a.52.52,0,0,1-.457-.278L40.894,12.784a.585.585,0,0,1,.519-.859H42.7c.2,0,.365-.006.513-.016s.3-.025.484-.045A2.818,2.818,0,0,0,44.8,11.5a2.859,2.859,0,0,0,.811-.711,3.146,3.146,0,0,0,.495-.942,3.391,3.391,0,0,0,.169-1.061,3,3,0,0,0-.18-1.036,3.329,3.329,0,0,0-.524-.933,3.107,3.107,0,0,0-.819-.722,2.831,2.831,0,0,0-1.069-.382L39.57,5.693V23.347a.346.346,0,0,1-.343.345H34.671a.346.346,0,0,1-.344-.345V1.964a.346.346,0,0,1,.344-.345h9.864a7.037,7.037,0,0,1,2.816.564,7.435,7.435,0,0,1,2.289,1.53A7.292,7.292,0,0,1,51.18,5.977a6.874,6.874,0,0,1,.56,2.752,6.592,6.592,0,0,1-.268,1.884,7.067,7.067,0,0,1-1.9,3.1,7.705,7.705,0,0,1-1.452,1.094l-.281.158,4.335,8.222Z" transform="translate(0.001)"/></svg>