<svg xmlns="http://www.w3.org/2000/svg" width="61.55" height="51.597" viewBox="0 0 61.55 51.597"><defs><style>.a{fill:#002eff;}.b{fill:#ff3d00;}.b,.c{fill-rule:evenodd;}.c{fill:#fff;}</style></defs><path class="a" d="M5.314,48.086a4.752,4.752,0,0,0,5.22,4.237l43.41-4.534a4.752,4.752,0,0,0,4.213-4.072L62.442,12.9a4.752,4.752,0,0,0-4.1-5.367L6.3.792a4.752,4.752,0,0,0-5.336,5.2Z" transform="translate(-0.938 -0.752)"/><path class="b" d="M33.054,11.252a1.376,1.376,0,0,0-1.562.1L28.9,13.61a.731.731,0,0,0,.07,1.206,10.9,10.9,0,0,1,4,8.78,12.059,12.059,0,0,1-4.219,8.958.775.775,0,0,0-.036,1.243l2.571,2.22a1.4,1.4,0,0,0,1.567.111A15.167,15.167,0,0,0,38.9,23.616,14.975,14.975,0,0,0,33.054,11.252Z" transform="translate(8.417 2.754)"/><path class="c" d="M16.74,25.953s-.722-.069-.722.516c0,3.305,2.451,5.66,6.3,5.66a8.118,8.118,0,0,0,5.8-1.991c.4-.3.834-.588,1.161-.23.228.245,3.26,3.059,3.26,3.059.38.358.276.786-.131,1.129s-4.939,3.885-10.15,3.885C15.449,37.98,8.905,35,8.905,23.774c0-9.049,5.1-14.158,12.584-14.158,8.038,0,12.582,5.642,12.582,13.25v1.925a1.138,1.138,0,0,1-1.156,1.162Zm9.57-7.717a5.033,5.033,0,0,0-4.821-2.875,5.036,5.036,0,0,0-4.821,2.875A7.4,7.4,0,0,0,16,21.217H26.978A7.414,7.414,0,0,0,26.31,18.237Z" transform="translate(1.774 2.264)"/></svg>