<svg xmlns="http://www.w3.org/2000/svg" width="112.781" height="39.239" viewBox="0 0 112.781 39.239"><defs><style>.a{fill:#fcce06;}.b{fill:#0a0806;}</style></defs><g transform="translate(0)"><g transform="translate(0 33.656)"><path class="a" d="M-17.222,4.931h-105.5L-121.5-.653h105.5Z" transform="translate(122.72 0.653)"/></g><g transform="translate(73.305 0)"><g transform="translate(0 0)"><path class="b" d="M-3.282,2.319c-.946-.993-.374-2.967.105-5.2L-1.53-10.46H5.246L6.472-16.1H-.3L.9-21.733H-5.478L-9.672-2.365c-.631,2.9-.864,5.152.421,7.593C-8.06,7.494-3.983,9.656,1.169,8.289L2.313,3.055c-3.5.432-4.906-.023-5.6-.736" transform="translate(10.182 21.733)"/></g></g><g transform="translate(2.01 0.005)"><path class="b" d="M-5.722,5.72-8.771,19.7h-11.2L-16.937,5.72h-6.437L-29.88,35.742h6.437l2.255-10.408h11.2L-12.24,35.742h6.378L.656,5.72H-5.722Z" transform="translate(29.88 -5.72)"/></g><g transform="translate(55.517 5.191)"><g transform="translate(0 0)"><path class="b" d="M-3.355,5.357c-2.231,1.822-3.5,4.217-4.322,7.99l-3.1,14.287h6.39l2.57-11.845c.6-2.78,1.063-4.509,2.126-5.572,1.46-1.46,3.575-1.542,6.121-1.343L7.661,3.231A12.437,12.437,0,0,0-3.355,5.357" transform="translate(10.773 -2.792)"/></g></g><g transform="translate(87.537 5.635)"><path class="b" d="M-5.876,5.72H-25.816l-1.227,5.642h11.565L-29.94,24.691l-1.18,5.42h19.941l1.227-5.642H-21.588L-7.044,11.082Z" transform="translate(31.12 -5.72)"/></g><g transform="translate(31.915 5.186)"><g transform="translate(0)"><path class="b" d="M-4.228,5.72a13.187,13.187,0,0,0-8,2.885c-6.53,5.023-9.778,22.406,4.252,22.406a18.389,18.389,0,0,0,10.49-3.2L-.034,23.6c-2.126,1.6-12.827,5.082-11.693-3.411H5c.012-.012,2.138-6.81-.935-10.911C1.449,5.778-3.352,5.72-4.228,5.72m4.147,9.31H-10.314A6.419,6.419,0,0,1-3.737,10.72,3.662,3.662,0,0,1-.081,15.03" transform="translate(17.819 -5.72)"/></g></g></g></svg>