<svg xmlns="http://www.w3.org/2000/svg" width="139.798" height="28.976" viewBox="0 0 139.798 28.976"><defs><style>.a{fill:#a0a1a2;}.b{fill:#555759;}.c{fill:#3fae2a;}</style></defs><g transform="translate(0 0)"><path class="a" d="M1036,128.141h-1.49a4.1,4.1,0,0,0-.559.035,1.458,1.458,0,0,0-.576.177,1.411,1.411,0,0,0-.452.434,1.518,1.518,0,0,0-.177.78,1.085,1.085,0,0,0,.452,1,2.176,2.176,0,0,0,1.2.284,2.05,2.05,0,0,0,.3-.018,3.162,3.162,0,0,0,.408-.035c.142-.018.292-.044.461-.08a2.894,2.894,0,0,0,.443-.133v-2.447Zm1.835,3.156a.56.56,0,0,1-.3.55,5.115,5.115,0,0,1-1.543.461c-.284.044-.559.08-.825.1-.284.018-.541.018-.789.018a5.47,5.47,0,0,1-1.7-.222,2.856,2.856,0,0,1-1.082-.6,2.056,2.056,0,0,1-.55-.887,3.567,3.567,0,0,1-.151-1.073,3.647,3.647,0,0,1,.177-1.126,2.334,2.334,0,0,1,.585-.958,3.059,3.059,0,0,1,1.046-.656,4.351,4.351,0,0,1,1.569-.248h1.747v-.275a2.432,2.432,0,0,0-.062-.585,1.1,1.1,0,0,0-.239-.461,1.042,1.042,0,0,0-.488-.3,2.342,2.342,0,0,0-.816-.115,6.961,6.961,0,0,0-1.153.106,5.222,5.222,0,0,0-1.011.231.507.507,0,0,1-.248.018c-.044-.018-.08-.089-.106-.186l-.213-.949q-.066-.266.133-.346a6.861,6.861,0,0,1,1.427-.381,10.726,10.726,0,0,1,1.463-.106,3.181,3.181,0,0,1,2.367.771,3.042,3.042,0,0,1,.754,2.234V131.3Z" transform="translate(-941.071 -113.166)"/><path class="a" d="M1166.625,128.141h-1.49a4.237,4.237,0,0,0-.567.035,1.5,1.5,0,0,0-.576.177,1.248,1.248,0,0,0-.452.434,1.433,1.433,0,0,0-.177.78,1.085,1.085,0,0,0,.452,1,2.137,2.137,0,0,0,1.2.284,2.108,2.108,0,0,0,.3-.018,3.454,3.454,0,0,0,.408-.035,4.567,4.567,0,0,0,.461-.08,2.909,2.909,0,0,0,.443-.133Zm1.827,3.156a.56.56,0,0,1-.3.55,5.076,5.076,0,0,1-.736.284,5.145,5.145,0,0,1-.816.177c-.284.044-.55.08-.833.1s-.532.018-.78.018a5.468,5.468,0,0,1-1.7-.222,2.881,2.881,0,0,1-1.073-.6,1.9,1.9,0,0,1-.55-.887,3.571,3.571,0,0,1-.16-1.073,3.405,3.405,0,0,1,.186-1.126,2.526,2.526,0,0,1,.576-.958,3.061,3.061,0,0,1,1.046-.656,4.368,4.368,0,0,1,1.578-.248h1.747v-.275a2.041,2.041,0,0,0-.071-.585.989.989,0,0,0-.23-.461,1.043,1.043,0,0,0-.488-.3,2.286,2.286,0,0,0-.807-.115,6.878,6.878,0,0,0-1.152.106,5.065,5.065,0,0,0-1.011.231.474.474,0,0,1-.239.018.229.229,0,0,1-.115-.186l-.213-.949c-.044-.177,0-.293.142-.346a6.863,6.863,0,0,1,1.428-.381,10.922,10.922,0,0,1,1.463-.106,3.2,3.2,0,0,1,2.367.771,3.041,3.041,0,0,1,.754,2.234V131.3Z" transform="translate(-1060.094 -113.166)"/><path class="a" d="M1344.346,124.813a1.491,1.491,0,0,0-.745.177,1.688,1.688,0,0,0-.55.479,2.526,2.526,0,0,0-.372.683,2.154,2.154,0,0,0-.151.8h3.573a4.074,4.074,0,0,0-.08-.833,1.988,1.988,0,0,0-.266-.674,1.381,1.381,0,0,0-.523-.461,2.2,2.2,0,0,0-.886-.168m-.027-1.614a3.318,3.318,0,0,1,2.642.984,3.947,3.947,0,0,1,.86,2.7,2.375,2.375,0,0,1-.1.718,1.1,1.1,0,0,1-.266.443.848.848,0,0,1-.39.231,1.721,1.721,0,0,1-.5.071h-4.131a3.174,3.174,0,0,0,.186,1.091,2.091,2.091,0,0,0,.461.718,1.6,1.6,0,0,0,.683.39,2.931,2.931,0,0,0,.842.124,3.594,3.594,0,0,0,.975-.133,3.63,3.63,0,0,0,.833-.319c.169-.071.284-.044.346.1l.426.949c.071.186.035.31-.107.39a3.633,3.633,0,0,1-1.294.532,6.455,6.455,0,0,1-1.339.151,3.69,3.69,0,0,1-2.864-1.082,4.943,4.943,0,0,1-1-3.431,6.03,6.03,0,0,1,.284-1.959,4.428,4.428,0,0,1,.762-1.454,3.191,3.191,0,0,1,1.179-.9,3.593,3.593,0,0,1,1.507-.319" transform="translate(-1223.301 -113.074)"/><path class="a" d="M1520.216,128.141h-1.49a4.2,4.2,0,0,0-.558.035,1.5,1.5,0,0,0-.576.177,1.32,1.32,0,0,0-.452.434,1.517,1.517,0,0,0-.177.78,1.085,1.085,0,0,0,.452,1,2.175,2.175,0,0,0,1.2.284,2.053,2.053,0,0,0,.3-.018,3.443,3.443,0,0,0,.417-.035,4.561,4.561,0,0,0,.461-.08,2.9,2.9,0,0,0,.443-.133v-2.447Zm1.835,3.156a.56.56,0,0,1-.3.55,5.087,5.087,0,0,1-.736.284,4.946,4.946,0,0,1-.816.177c-.284.044-.559.08-.825.1-.284.018-.532.018-.789.018a5.508,5.508,0,0,1-1.7-.222,3.035,3.035,0,0,1-1.073-.6,2.059,2.059,0,0,1-.55-.887,3.575,3.575,0,0,1-.159-1.073,3.4,3.4,0,0,1,.186-1.126,2.337,2.337,0,0,1,.585-.958,3.062,3.062,0,0,1,1.046-.656,4.369,4.369,0,0,1,1.578-.248h1.747v-.275a2.42,2.42,0,0,0-.062-.585,1.093,1.093,0,0,0-.24-.461,1.072,1.072,0,0,0-.5-.3,2.255,2.255,0,0,0-.807-.115,6.961,6.961,0,0,0-1.153.106,5.117,5.117,0,0,0-1,.231.507.507,0,0,1-.248.018c-.053-.018-.089-.089-.107-.186l-.222-.949c-.035-.177,0-.293.142-.346a6.717,6.717,0,0,1,1.427-.381,10.8,10.8,0,0,1,1.454-.106,3.2,3.2,0,0,1,2.376.771,3.08,3.08,0,0,1,.754,2.234V131.3Z" transform="translate(-1382.343 -113.166)"/><path class="a" d="M958.4,92.489c-.035-.062-.124-.089-.275-.089h-4.371a3.013,3.013,0,0,0-1.312.248,2.214,2.214,0,0,0-.851.665,2.505,2.505,0,0,0-.461.966A4.713,4.713,0,0,0,951,95.406v8.334c0,.142.027.239.1.284a.452.452,0,0,0,.266.071h.488c.337-.027,1.046-.2,1.046-1.295V98.961h4.655c.142,0,.222-.027.257-.106a.621.621,0,0,0,.053-.284v-.949a.6.6,0,0,0-.053-.31c-.036-.053-.115-.08-.257-.08H952.9V95.282a1.143,1.143,0,0,1,.248-.807,1.039,1.039,0,0,1,.825-.275h4.158a.309.309,0,0,0,.266-.089.474.474,0,0,0,.062-.3V92.781a.613.613,0,0,0-.053-.293" transform="translate(-868.258 -85.005)"/><path class="a" d="M1256.576,95.915a2.6,2.6,0,0,1-.434.9,1.721,1.721,0,0,1-.683.505,2.357,2.357,0,0,1-.887.16,5.543,5.543,0,0,1-.718-.044,3.237,3.237,0,0,1-.771-.168V91.934a4.386,4.386,0,0,1,.949-.213,6.666,6.666,0,0,1,.71-.053,1.71,1.71,0,0,1,1.463.718,3.665,3.665,0,0,1,.523,2.181,5.259,5.259,0,0,1-.151,1.348m1.8-3.219a4.055,4.055,0,0,0-.638-1.427,2.878,2.878,0,0,0-1.1-.931,3.483,3.483,0,0,0-1.6-.337,6.412,6.412,0,0,0-.958.071,6.185,6.185,0,0,0-.984.222l-.009-3.227c0-.133-.018-.213-.062-.248a.392.392,0,0,0-.23-.044h-.488c-.346.027-1,.222-1.019,1.25V98.141a.4.4,0,0,0,.053.239.343.343,0,0,0,.177.151,5.367,5.367,0,0,0,1.525.47,9.44,9.44,0,0,0,1.632.142,4.247,4.247,0,0,0,1.773-.346,3.3,3.3,0,0,0,1.224-.975,3.951,3.951,0,0,0,.7-1.481,7.749,7.749,0,0,0,.009-3.644" transform="translate(-1141.915 -79.876)"/><path class="a" d="M1433.681,98.558l-.106-.94a.275.275,0,0,0-.071-.177.324.324,0,0,0-.177-.027c-.071.009-.168.018-.275.035a1.726,1.726,0,0,1-.284.018.461.461,0,0,1-.417-.16,1.129,1.129,0,0,1-.106-.594V87.059q0-.186-.08-.239a.426.426,0,0,0-.24-.044h-.5a1.1,1.1,0,0,0-1.028,1.215v9.2a2.2,2.2,0,0,0,.408,1.516,1.635,1.635,0,0,0,1.276.434c.2,0,.435-.018.7-.035a2.68,2.68,0,0,0,.709-.177.51.51,0,0,0,.186-.142.494.494,0,0,0,0-.231" transform="translate(-1305.153 -79.877)"/><path class="a" d="M1478.581,98.558l-.106-.94a.331.331,0,0,0-.071-.177.323.323,0,0,0-.177-.027c-.071.009-.168.018-.275.035a1.673,1.673,0,0,1-.284.018.5.5,0,0,1-.426-.16,1.132,1.132,0,0,1-.106-.594V87.059a.306.306,0,0,0-.071-.239.425.425,0,0,0-.24-.044h-.5c-.346.027-1.019.222-1.028,1.277V97.2a2.2,2.2,0,0,0,.408,1.516,1.639,1.639,0,0,0,1.268.434c.213,0,.444-.018.709-.035a2.868,2.868,0,0,0,.709-.177.511.511,0,0,0,.186-.142.532.532,0,0,0,0-.239" transform="translate(-1346.072 -79.877)"/><path class="a" d="M1125.29,98.558l-.106-.94a.335.335,0,0,0-.071-.177.342.342,0,0,0-.186-.027c-.071.009-.168.018-.275.035a1.672,1.672,0,0,1-.284.018.47.47,0,0,1-.417-.16,1.029,1.029,0,0,1-.115-.594V87.059c0-.124-.018-.2-.071-.239a.425.425,0,0,0-.239-.044h-.505c-.346.027-1.02.222-1.02,1.286v9.132a2.252,2.252,0,0,0,.4,1.516,1.661,1.661,0,0,0,1.277.434c.2,0,.434-.018.709-.035a2.7,2.7,0,0,0,.7-.177.509.509,0,0,0,.186-.142.308.308,0,0,0,.018-.231" transform="translate(-1024.097 -79.877)"/><path class="b" d="M275.757,87.177a3.528,3.528,0,0,1,.231-1.286,2.744,2.744,0,0,1,.692-1.011,3.3,3.3,0,0,1,1.162-.665,5.145,5.145,0,0,1,1.649-.231c.293,0,.6.018.922.044s.638.08.958.133a6.086,6.086,0,0,1,.922.222,5.942,5.942,0,0,1,.825.3.482.482,0,0,1,.168.151c.027.044.009.124-.035.231l-.4,1.135c-.044.124-.089.186-.124.2a.41.41,0,0,1-.2-.018,11.767,11.767,0,0,0-1.614-.426,8.15,8.15,0,0,0-1.472-.142,1.815,1.815,0,0,0-1.25.364,1.126,1.126,0,0,0-.39.842,1.006,1.006,0,0,0,.142.541,1.716,1.716,0,0,0,.452.47,5.194,5.194,0,0,0,.789.452c.31.151.692.319,1.144.5q.7.306,1.357.612a5.478,5.478,0,0,1,1.144.727,3.216,3.216,0,0,1,.789.975,2.906,2.906,0,0,1,.293,1.365,3.407,3.407,0,0,1-.319,1.516,3.012,3.012,0,0,1-.878,1.064,4.008,4.008,0,0,1-1.312.63,6.046,6.046,0,0,1-1.631.213,12.73,12.73,0,0,1-2.181-.2,6.779,6.779,0,0,1-2.11-.736c-.16-.071-.186-.2-.1-.4l.5-1.135a.25.25,0,0,1,.363-.151,12.749,12.749,0,0,0,1.64.559,6.4,6.4,0,0,0,1.649.222,2.779,2.779,0,0,0,1.773-.434,1.434,1.434,0,0,0,.39-1.711,1.54,1.54,0,0,0-.417-.5,3.931,3.931,0,0,0-.709-.434c-.284-.142-.629-.284-1.029-.443-.594-.231-1.126-.47-1.6-.7a5.384,5.384,0,0,1-1.188-.763,2.891,2.891,0,0,1-.736-.922,2.574,2.574,0,0,1-.257-1.162" transform="translate(-252.5 -77.335)"/><path class="b" d="M378.345,117a3.681,3.681,0,0,1,2.82.984,3.821,3.821,0,0,1,.913,2.713,2.3,2.3,0,0,1-.1.718,1.068,1.068,0,0,1-.284.452,1,1,0,0,1-.426.231,1.963,1.963,0,0,1-.523.071h-4.4a2.951,2.951,0,0,0,.2,1.091,1.928,1.928,0,0,0,.5.718,1.867,1.867,0,0,0,.727.39,3.218,3.218,0,0,0,.9.115,4.059,4.059,0,0,0,1.037-.133,4.765,4.765,0,0,0,.9-.319c.177-.08.3-.044.364.1l.443.958a.257.257,0,0,1-.115.381,4.108,4.108,0,0,1-1.374.532,7.362,7.362,0,0,1-1.419.151,4.081,4.081,0,0,1-3.059-1.091,4.822,4.822,0,0,1-1.055-3.449,5.886,5.886,0,0,1,.3-1.968,4.282,4.282,0,0,1,.816-1.454,3.336,3.336,0,0,1,1.25-.9,4.356,4.356,0,0,1,1.587-.284m.027,1.623a1.79,1.79,0,0,0-.8.177,1.817,1.817,0,0,0-.594.479,2.6,2.6,0,0,0-.4.683,2.726,2.726,0,0,0-.168.8h3.8a4.085,4.085,0,0,0-.08-.833,1.716,1.716,0,0,0-.293-.674,1.5,1.5,0,0,0-.559-.461,2.049,2.049,0,0,0-.913-.168" transform="translate(-342.772 -107.422)"/><path class="b" d="M473.461,125.619a5.907,5.907,0,0,1-.284,1.942,3.338,3.338,0,0,1-.833,1.339,3.9,3.9,0,0,1-1.366.833,8.816,8.816,0,0,1-1.915.452c-.186.035-.293-.027-.31-.186l-.168-1.268a.231.231,0,0,1,.2-.266,8.783,8.783,0,0,0,1.117-.239,3.074,3.074,0,0,0,.86-.381,1.7,1.7,0,0,0,.55-.6,1.938,1.938,0,0,0,.2-.9v-.1a6.864,6.864,0,0,1-1.037.231,7.13,7.13,0,0,1-1.02.071,3.939,3.939,0,0,1-1.685-.328,3.062,3.062,0,0,1-1.17-.913,3.858,3.858,0,0,1-.683-1.392,6.72,6.72,0,0,1-.222-1.8,6.835,6.835,0,0,1,.248-1.853,3.967,3.967,0,0,1,.762-1.463,3.53,3.53,0,0,1,1.295-.958,4.616,4.616,0,0,1,1.88-.355,12.776,12.776,0,0,1,1.72.124,5.929,5.929,0,0,1,1.623.461.443.443,0,0,1,.213.177.466.466,0,0,1,.044.231v7.137Zm-5.8-3.6a3.417,3.417,0,0,0,.559,2.163,1.892,1.892,0,0,0,1.552.692,7.068,7.068,0,0,0,.736-.053,5.587,5.587,0,0,0,1-.2v-5.3a4.928,4.928,0,0,0-.816-.168,6.116,6.116,0,0,0-.754-.053,2.562,2.562,0,0,0-.931.16,1.714,1.714,0,0,0-.718.505,2.439,2.439,0,0,0-.461.9,4.668,4.668,0,0,0-.168,1.365" transform="translate(-425.981 -107.868)"/><path class="b" d="M569.723,126.383c.124,0,.293,0,.523-.009a5.676,5.676,0,0,0,.78-.089v-6.925c0-.124.018-.2.062-.231a.41.41,0,0,1,.248-.053h1.286a.4.4,0,0,1,.239.053.3.3,0,0,1,.071.231v7.155a1.49,1.49,0,0,1-.266.931,1.37,1.37,0,0,1-.842.461c-.142.027-.31.044-.5.062s-.381.035-.576.053l-.576.027c-.186.009-.355.009-.5.009a6.806,6.806,0,0,1-1.9-.231,2.926,2.926,0,0,1-1.259-.745,2.983,2.983,0,0,1-.7-1.33,7.481,7.481,0,0,1-.222-1.968V119.37c0-.124.018-.2.062-.231a.41.41,0,0,1,.248-.053H567.2a.435.435,0,0,1,.239.053c.053.035.071.115.071.231v4.451a7.028,7.028,0,0,0,.08,1.135,1.673,1.673,0,0,0,.328.8,1.436,1.436,0,0,0,.665.479,3.722,3.722,0,0,0,1.144.151" transform="translate(-517.03 -109.316)"/><path class="b" d="M664.344,126.11a.444.444,0,0,1-.257.053H662.81a.435.435,0,0,1-.239-.053c-.053-.035-.071-.106-.071-.231v-7.173a1.753,1.753,0,0,1,.222-.993,1.312,1.312,0,0,1,.931-.426c.2-.018.4-.044.6-.062s.408-.027.621-.027a7.034,7.034,0,0,1,1.942.266,4.547,4.547,0,0,1,1.693.9q.12.08.107.16a.4.4,0,0,1-.062.16l-.763,1.1c-.053.089-.115.133-.168.115a.5.5,0,0,1-.2-.1,3.761,3.761,0,0,0-1.037-.647,3.187,3.187,0,0,0-1.215-.231c-.133,0-.266.009-.4.018a2.627,2.627,0,0,0-.381.053v6.871c.026.133,0,.2-.053.239" transform="translate(-605.338 -107.606)"/><path class="b" d="M737.008,121.546a5.121,5.121,0,0,1-1.02,3.422,3.746,3.746,0,0,1-3.032,1.2A3.7,3.7,0,0,1,729.977,125a5.131,5.131,0,0,1-.984-3.4,6.071,6.071,0,0,1,.293-1.959,4.071,4.071,0,0,1,.825-1.436,3.476,3.476,0,0,1,1.268-.9A4.167,4.167,0,0,1,733,117a3.636,3.636,0,0,1,2.979,1.215,4.95,4.95,0,0,1,1.029,3.334m-1.959.044a7.774,7.774,0,0,0-.089-1.144,3.063,3.063,0,0,0-.31-.949,1.718,1.718,0,0,0-.612-.647,1.839,1.839,0,0,0-.984-.239,1.8,1.8,0,0,0-.922.231,1.994,1.994,0,0,0-.665.612,2.811,2.811,0,0,0-.39.922,5.32,5.32,0,0,0-.124,1.162,4.6,4.6,0,0,0,.443,2.2,1.654,1.654,0,0,0,1.587.8,1.757,1.757,0,0,0,1.614-.887,2.9,2.9,0,0,0,.346-.931,5.72,5.72,0,0,0,.106-1.126" transform="translate(-665.934 -107.422)"/><path class="b" d="M827.054,123.416a2.58,2.58,0,0,1-.248,1.17,2.158,2.158,0,0,1-.691.825,2.986,2.986,0,0,1-1.028.488,5.029,5.029,0,0,1-1.295.16,6.977,6.977,0,0,1-.842-.044c-.3-.027-.594-.071-.9-.124a6.426,6.426,0,0,1-.86-.222,4.625,4.625,0,0,1-.762-.346.262.262,0,0,1-.115-.4l.4-.94a.419.419,0,0,1,.168-.2.318.318,0,0,1,.266.044,6.247,6.247,0,0,0,1.321.443,6.107,6.107,0,0,0,1.286.16,1.612,1.612,0,0,0,1.037-.275.866.866,0,0,0,.346-.709.9.9,0,0,0-.443-.771,7.835,7.835,0,0,0-1.339-.621,11.205,11.205,0,0,1-1.179-.505,3.593,3.593,0,0,1-.833-.559,2.1,2.1,0,0,1-.505-.692,2.136,2.136,0,0,1-.177-.887,2.475,2.475,0,0,1,.2-1.011,2.242,2.242,0,0,1,.594-.8,2.846,2.846,0,0,1,.975-.523,4.152,4.152,0,0,1,1.348-.2,8.1,8.1,0,0,1,1.383.124,6.276,6.276,0,0,1,1.339.39.268.268,0,0,1,.16.168.414.414,0,0,1-.009.231l-.381.949c-.035.089-.071.142-.124.151a.378.378,0,0,1-.2-.035,7.083,7.083,0,0,0-1.135-.319,6.509,6.509,0,0,0-1.046-.08,1.317,1.317,0,0,0-.9.257.785.785,0,0,0-.284.576.884.884,0,0,0,.089.4.96.96,0,0,0,.293.31,2.755,2.755,0,0,0,.523.293c.213.1.479.2.789.319q.532.2,1.037.426a4.079,4.079,0,0,1,.9.541,2.573,2.573,0,0,1,.63.754,2.691,2.691,0,0,1,.222,1.073" transform="translate(-749.118 -107.324)"/><path class="c" d="M33.05,70.415A9.008,9.008,0,0,0,17.8,75.3v.39a40.179,40.179,0,0,1,8.875-.922,39.654,39.654,0,0,1,8.875.922v-.372a8.847,8.847,0,0,0-2.5-4.9" transform="translate(-17.8 -62.568)"/><path class="c" d="M34.072,9H19.487A1.586,1.586,0,0,0,17.9,10.587v6.765a10.634,10.634,0,0,1,17.76.009V10.587A1.585,1.585,0,0,0,34.072,9" transform="translate(-17.891 -9)"/><path class="c" d="M27.491,165.2v8.946a1.481,1.481,0,1,0,2.961,0,.8.8,0,1,1,1.6,0,3.09,3.09,0,1,1-6.18,0V165.2a36.758,36.758,0,0,0-8.077.958v12.582a1.585,1.585,0,0,0,1.587,1.587H33.972a1.585,1.585,0,0,0,1.587-1.587V166.158a36.542,36.542,0,0,0-8.068-.958" transform="translate(-17.8 -151.351)"/><path class="b" d="M953.342,246.789a1.566,1.566,0,0,1-.763.177,1.065,1.065,0,0,1-1.179-1.117,1.15,1.15,0,0,1,1.232-1.153,1.614,1.614,0,0,1,.612.106v.426a1.259,1.259,0,0,0-.6-.142.754.754,0,0,0-.009,1.507,1.151,1.151,0,0,0,.568-.16Z" transform="translate(-868.623 -223.798)"/><path class="b" d="M1021,245.835a1.166,1.166,0,1,1,1.161,1.135,1.1,1.1,0,0,1-1.161-1.135m1.826,0c0-.479-.266-.754-.656-.754s-.656.266-.656.754.266.754.656.754.656-.266.656-.754" transform="translate(-932.052 -223.802)"/><path class="b" d="M1096.709,244.991h.683a1.194,1.194,0,0,1,.479.08.563.563,0,0,1,.364.559.581.581,0,0,1-.443.567v.009a1.069,1.069,0,0,1,.293.364l.372.638h-.55l-.3-.532c-.116-.213-.2-.293-.248-.31h-.177v.842h-.479v-2.217Zm.656,1a.531.531,0,0,0,.23-.044.3.3,0,0,0,.151-.266.275.275,0,0,0-.16-.266.462.462,0,0,0-.221-.044h-.178V246h.178Z" transform="translate(-1001.04 -224.066)"/><path class="b" d="M1165.1,244.991h.683a1.2,1.2,0,0,1,.479.08.564.564,0,0,1,.364.559.581.581,0,0,1-.443.567v.009a1.066,1.066,0,0,1,.293.364l.372.638h-.541l-.3-.532c-.115-.213-.195-.293-.248-.31h-.177v.842h-.47v-2.217Zm.647,1a.53.53,0,0,0,.23-.044.3.3,0,0,0,.151-.266.275.275,0,0,0-.16-.266.463.463,0,0,0-.222-.044h-.177V246h.177Z" transform="translate(-1063.375 -224.066)"/><path class="b" d="M1215.5,236h1.321l-.124.381h-.727v.514h.727v.39h-.727v.532h.842v.4H1215.5Z" transform="translate(-1107.729 -215.075)"/><path class="b" d="M1297.809,245h.771c.807,0,1.259.426,1.259,1.091a1.156,1.156,0,0,1-1.312,1.126h-.727V245Zm.736,1.818a.693.693,0,0,0,.789-.727c0-.443-.275-.709-.8-.709h-.248v1.436Z" transform="translate(-1184.31 -224.075)"/><path class="b" d="M1369.3,245.835a1.166,1.166,0,1,1,1.161,1.135,1.1,1.1,0,0,1-1.161-1.135m1.818,0c0-.479-.266-.754-.656-.754s-.656.266-.656.754.266.754.656.754.656-.266.656-.754" transform="translate(-1249.47 -223.802)"/><path class="b" d="M1445.1,244.991h.683a1.2,1.2,0,0,1,.479.08.563.563,0,0,1,.364.559.581.581,0,0,1-.443.567v.009a1.067,1.067,0,0,1,.293.364l.372.638h-.541l-.3-.532c-.115-.213-.2-.293-.248-.31h-.177v.842h-.479Zm.647,1a.53.53,0,0,0,.23-.044.3.3,0,0,0,.151-.266.275.275,0,0,0-.16-.266.464.464,0,0,0-.222-.044h-.177V246h.177Z" transform="translate(-1318.549 -224.066)"/><path class="b" d="M1495.5,236h1.321l-.124.381h-.727v.514h.727v.39h-.727v.532h.851v.4H1495.5Z" transform="translate(-1362.902 -215.075)"/><path class="b" d="M1577.069,246.418a.92.92,0,0,0,.523.168c.177,0,.355-.062.355-.231,0-.4-.975-.355-.975-1.029,0-.337.275-.63.771-.63a1.373,1.373,0,0,1,.576.115v.417a1.248,1.248,0,0,0-.567-.142c-.142,0-.275.053-.275.2,0,.372.984.319.984,1.029,0,.408-.364.656-.842.656a1.268,1.268,0,0,1-.718-.2Z" transform="translate(-1438.663 -223.799)"/></g></svg>