<?xml version="1.0" encoding="utf-8"?>
<!-- Generator: Adobe Illustrator 24.2.0, SVG Export Plug-In . SVG Version: 6.00 Build 0)  -->
<svg version="1.1" id="Capa_1" xmlns="http://www.w3.org/2000/svg" xmlns:xlink="http://www.w3.org/1999/xlink" x="0px" y="0px"
	 viewBox="0 0 967.11 312.55" style="enable-background:new 0 0 967.11 312.55;" xml:space="preserve">
<style type="text/css">
	.st0{fill:#006AB5;}
	.st1{fill:#0061A6;}
	.st2{fill:#004B80;}
	.st3{fill:#003F6B;}
	.st4{fill:#00FFCE;}
	.st5{fill:#00D4AB;}
	.st6{fill:#00B08E;}
	.st7{fill:#008F74;}
	.st8{fill:url(#SVGID_1_);}
	.st9{fill:url(#SVGID_2_);}
	.st10{fill:url(#SVGID_3_);}
	.st11{fill:url(#SVGID_4_);}
	.st12{fill:url(#SVGID_5_);}
	.st13{fill:#FFFFFF;}
	.st14{enable-background:new    ;}
	.st15{fill:url(#SVGID_6_);}
	.st16{fill:url(#SVGID_7_);}
	.st17{fill:url(#SVGID_8_);}
	.st18{fill:url(#SVGID_9_);}
	.st19{fill:url(#SVGID_10_);}
	.st20{fill:#1A1A1A;}
	.st21{fill:#808080;}
	.st22{fill:url(#SVGID_11_);}
</style>
<g>
	
		<linearGradient id="SVGID_1_" gradientUnits="userSpaceOnUse" x1="13952.0996" y1="-5799.5381" x2="13952.0996" y2="-6047.061" gradientTransform="matrix(-0.7071 0.7071 0.7071 0.7071 14156.7744 -5571.6851)">
		<stop  offset="0" style="stop-color:#006AB5"/>
		<stop  offset="0.1265" style="stop-color:#0071B6"/>
		<stop  offset="0.3112" style="stop-color:#0085B9"/>
		<stop  offset="0.5316" style="stop-color:#00A5BF"/>
		<stop  offset="0.7774" style="stop-color:#00D1C6"/>
		<stop  offset="1" style="stop-color:#00FFCE"/>
	</linearGradient>
	<path class="st8" d="M43.52,193.05h146.74l0-146.74c0-22.09-17.91-40-40-40H43.52c-22.09,0-40,17.91-40,40v106.74
		C3.52,175.14,21.42,193.05,43.52,193.05z"/>
	<g>
		
			<linearGradient id="SVGID_2_" gradientUnits="userSpaceOnUse" x1="3320.9363" y1="4633.2749" x2="3361.209" y2="4674.4292" gradientTransform="matrix(0.7071 0.7071 -0.7071 0.7071 1008.3113 -5571.6851)">
			<stop  offset="0" style="stop-color:#FFFFFF"/>
			<stop  offset="1" style="stop-color:#FFFFFF;stop-opacity:0.8"/>
		</linearGradient>
		<path class="st9" d="M99.05,43.78c-8.41,4.74-14.19,13.6-14.59,23.84c-0.15,0.3-0.22,0.64-0.22,1v39.96
			c0,1.29-1.05,2.34-2.34,2.34H64.06c-1.3,0-2.34-1.05-2.34-2.34v-53.1c0-6.46,5.24-11.7,11.7-11.7H99.05z"/>
		
			<linearGradient id="SVGID_3_" gradientUnits="userSpaceOnUse" x1="3327.6362" y1="4629.6543" x2="3355.2593" y2="4604.1606" gradientTransform="matrix(0.7071 0.7071 -0.7071 0.7071 1008.3113 -5571.6851)">
			<stop  offset="0" style="stop-color:#FFFFFF;stop-opacity:0.6"/>
			<stop  offset="1" style="stop-color:#FFFFFF;stop-opacity:0.9"/>
		</linearGradient>
		<path class="st10" d="M129.35,45.14c-0.36-0.8-1.18-1.36-2.12-1.36h-0.05H99.05c-8.41,4.74-14.19,13.6-14.59,23.84
			c0.37-0.79,1.18-1.34,2.12-1.34h40.66c1.3,0,2.34-1.04,2.34-2.34V46.12C129.57,45.77,129.49,45.44,129.35,45.14z"/>
		
			<linearGradient id="SVGID_4_" gradientUnits="userSpaceOnUse" x1="3400.7952" y1="4670.186" x2="3359.1592" y2="4630.4116" gradientTransform="matrix(0.7071 0.7071 -0.7071 0.7071 1008.3113 -5571.6851)">
			<stop  offset="0" style="stop-color:#FFFFFF"/>
			<stop  offset="1" style="stop-color:#FFFFFF;stop-opacity:0.8"/>
		</linearGradient>
		<path class="st11" d="M91.77,155.58c8.41-4.74,14.19-13.6,14.59-23.84c0.15-0.3,0.22-0.64,0.22-1V90.77
			c0-1.29,1.05-2.34,2.34-2.34h17.83c1.3,0,2.34,1.05,2.34,2.34v53.1c0,6.46-5.24,11.7-11.7,11.7H91.77z"/>
		
			<linearGradient id="SVGID_5_" gradientUnits="userSpaceOnUse" x1="3398.7427" y1="4682.4014" x2="3374.2881" y2="4710.9487" gradientTransform="matrix(0.7071 0.7071 -0.7071 0.7071 1008.3113 -5571.6851)">
			<stop  offset="0" style="stop-color:#FFFFFF;stop-opacity:0.6"/>
			<stop  offset="1" style="stop-color:#FFFFFF;stop-opacity:0.9"/>
		</linearGradient>
		<path class="st12" d="M104.25,133.07H63.59c-1.3,0-2.34,1.04-2.34,2.34v17.83c0,0.35,0.07,0.68,0.22,0.98
			c0.36,0.8,1.18,1.36,2.12,1.36h0.05h28.13c8.41-4.74,14.19-13.6,14.59-23.84C105.99,132.52,105.19,133.07,104.25,133.07z"/>
	</g>
</g>
<g>
	<g>
		<path class="st20" d="M446.8,45.13L446.8,45.13c0,13.15-10.66,23.81-23.81,23.81h-41.04v37.33h39c6.68,0,12.09,5.41,12.09,12.09v0
			c0,6.68-5.41,12.09-12.09,12.09h-39v37.06h40.94c13.21,0,23.91,10.7,23.91,23.91v0h-91.19V45.13H446.8z"/>
		<path class="st20" d="M487.68,45.28c0.81,0.1,1.53,0.3,2.17,0.61c0.64,0.3,1.27,0.74,1.87,1.31c0.61,0.57,1.28,1.33,2.02,2.28
			l76.79,97.83c-0.27-2.36-0.46-4.67-0.56-6.93c-0.1-2.26-0.15-4.37-0.15-6.32V45.13h23.98v146.29h-14.06
			c-2.16,0-3.95-0.34-5.36-1.01c-1.42-0.67-2.8-1.89-4.15-3.64l-76.49-97.43c0.2,2.16,0.35,4.3,0.45,6.42
			c0.1,2.12,0.15,4.06,0.15,5.82v89.84h-23.98V45.13h14.27C485.86,45.13,486.87,45.18,487.68,45.28z"/>
		<path class="st20" d="M748.94,118.28c0,10.72-1.79,20.57-5.36,29.54c-3.58,8.97-8.6,16.69-15.07,23.17
			c-6.48,6.47-14.27,11.5-23.37,15.07c-9.11,3.58-19.19,5.36-30.25,5.36h-52.51V63.17c0-9.96,8.07-18.03,18.03-18.03h34.47
			c11.06,0,21.15,1.81,30.25,5.41c9.11,3.61,16.9,8.63,23.37,15.07c6.48,6.44,11.5,14.15,15.07,23.12
			C747.15,97.71,748.94,107.56,748.94,118.28z M721.11,118.28c0-8.03-1.08-15.23-3.24-21.6c-2.16-6.37-5.23-11.77-9.21-16.19
			c-3.98-4.42-8.82-7.81-14.52-10.17c-5.7-2.36-12.12-3.54-19.27-3.54h-28.43v102.99h28.43c7.15,0,13.57-1.18,19.27-3.54
			c5.7-2.36,10.54-5.75,14.52-10.17c3.98-4.42,7.05-9.81,9.21-16.19C720.03,133.51,721.11,126.31,721.11,118.28z"/>
		<path class="st20" d="M800.94,191.43L800.94,191.43c-15.09,0-27.32-12.23-27.32-27.32V45.13h0c15.09,0,27.32,12.23,27.32,27.32
			V191.43z"/>
		<path class="st20" d="M962.41,191.43h-21.04c-2.36,0-4.3-0.59-5.82-1.77c-1.52-1.18-2.61-2.65-3.29-4.4l-10.93-29.85h-60.6
			l-10.93,29.85c-0.54,1.55-1.6,2.97-3.19,4.25c-1.59,1.28-3.53,1.92-5.82,1.92h-21.15l52.38-133.35c3.07-7.81,10.61-12.95,19-12.95
			h0c8.39,0,15.93,5.14,19,12.95L962.41,191.43z M867.71,136.19h46.64l-17.81-48.66c-0.81-2.16-1.7-4.71-2.68-7.64
			c-0.98-2.93-1.94-6.12-2.88-9.56c-0.95,3.44-1.87,6.64-2.78,9.61c-0.91,2.97-1.81,5.56-2.68,7.79L867.71,136.19z"/>
	</g>
	<path class="st20" d="M330.76,129.47c-0.64-1.41-1.31-2.69-2.05-3.91c-1.6-2.65-3.52-5.02-5.72-7.05
		c-3.18-2.94-6.86-5.42-10.94-7.36c-4.01-1.91-8.17-3.6-12.37-5.05c-1.42-0.49-2.82-0.97-4.22-1.44c-2.63-0.88-5.35-1.77-8.08-2.63
		c-3.96-1.26-7.52-2.69-10.58-4.25c-3.02-1.54-5.47-3.42-7.28-5.59c-1.35-1.62-2.19-3.57-2.5-5.8c-0.1-0.67-0.14-1.39-0.14-2.15
		c0-0.3,0-0.59,0.02-0.91c0.09-2.18,0.53-4.24,1.31-6.11c0.88-2.09,2.23-3.92,4.01-5.43c1.81-1.52,4.07-2.73,6.72-3.59
		c2.67-0.87,5.86-1.31,9.49-1.31c4.01,0,7.54,0.51,10.48,1.5c3,1.03,5.63,2.17,7.82,3.39c2.49,1.41,4.36,2.5,5.92,3.48
		c2.47,1.51,5.68,0.88,7.44-1.48L331.17,59l-0.59-0.55c-5.09-4.77-11.33-8.55-18.52-11.21c-7.28-2.69-15.34-4.06-23.96-4.06
		c-7.63,0-14.51,1.2-20.47,3.57c-5.96,2.38-11.07,5.58-15.17,9.51c-4.11,3.94-7.28,8.52-9.42,13.63c-2.14,5.1-3.23,10.41-3.23,15.78
		c0,6.7,0.98,12.43,2.92,17.02c0.83,1.96,1.78,3.79,2.81,5.42c0.84,1.36,1.75,2.61,2.69,3.72c0.71,0.85,1.47,1.67,2.27,2.43
		c3.09,2.96,6.65,5.41,10.56,7.28c0.13,0.07,0.27,0.13,0.4,0.19c4.02,1.88,8.17,3.51,12.33,4.85c1.62,0.52,3.22,1.03,4.81,1.51
		c2.57,0.8,5.08,1.54,7.44,2.21c3.93,1.12,7.49,2.49,10.56,4.09c3.01,1.57,5.46,3.53,7.28,5.82c1.77,2.23,2.66,5.18,2.66,8.77
		c0,6.51-2.02,11.56-6.01,15.01c-4.02,3.48-9.82,5.24-17.25,5.24c-4.87,0-9.1-0.67-12.56-2c-3.51-1.34-6.59-2.85-9.23-4.52
		c-3.93-2.5-9.2-1.54-11.99,2.18l-10.12,13.5l0.7,0.54c1.23,0.95,2.54,1.88,3.89,2.76c3.58,2.35,7.51,4.4,11.67,6.1
		c4.17,1.69,8.55,3,13.04,3.91c4.53,0.91,9.17,1.36,13.8,1.36c8.1,0,15.39-1.25,21.67-3.72c6.3-2.46,11.71-5.9,16.08-10.21
		c4.37-4.3,7.75-9.43,10.03-15.24c2.27-5.79,3.42-12.09,3.42-18.71C333.69,139.06,332.71,133.78,330.76,129.47z"/>
</g>
<g class="st14">
	<path class="st21" d="M626.88,258.8c3.06,0,5.69,0.29,7.88,0.88c2.19,0.59,3.99,1.44,5.39,2.55c1.41,1.11,2.44,2.46,3.11,4.03
		c0.67,1.58,1,3.36,1,5.36c0,1.18-0.18,2.31-0.54,3.4c-0.36,1.09-0.92,2.1-1.67,3.04c-0.75,0.94-1.69,1.79-2.82,2.54
		c-1.13,0.75-2.47,1.37-4.01,1.87c7.1,1.41,10.65,5.12,10.65,11.13c0,2.09-0.39,3.99-1.16,5.7c-0.77,1.71-1.89,3.19-3.37,4.44
		c-1.47,1.25-3.29,2.21-5.44,2.89c-2.16,0.68-4.6,1.02-7.35,1.02h-17.59V258.8H626.88z M618.2,264.48v15.99h8.34
		c3.56,0,6.21-0.72,7.94-2.16s2.6-3.38,2.6-5.83c0-2.79-0.83-4.82-2.48-6.09c-1.66-1.27-4.23-1.91-7.72-1.91H618.2z M628.41,301.9
		c1.84,0,3.41-0.21,4.71-0.65c1.3-0.43,2.37-1.02,3.2-1.77c0.83-0.75,1.43-1.64,1.82-2.67s0.58-2.16,0.58-3.39
		c0-2.43-0.84-4.34-2.52-5.73c-1.68-1.4-4.28-2.09-7.79-2.09H618.2v16.3H628.41z"/>
	<path class="st21" d="M672.71,288.33v19.33h-7.21v-19.33l-17.9-29.53h6.36c0.63,0,1.15,0.15,1.53,0.46
		c0.39,0.31,0.7,0.71,0.95,1.21l10.62,18.27c0.43,0.84,0.82,1.63,1.17,2.38c0.35,0.75,0.66,1.49,0.94,2.21
		c0.25-0.73,0.54-1.46,0.87-2.21c0.33-0.75,0.71-1.54,1.14-2.38l10.58-18.27c0.23-0.41,0.54-0.79,0.94-1.14
		c0.4-0.35,0.9-0.53,1.51-0.53h6.4L672.71,288.33z"/>
	<path class="st21" d="M753.92,283.23c0,3.65-0.58,6.97-1.75,9.97c-1.17,2.99-2.82,5.56-4.95,7.71c-2.13,2.14-4.68,3.81-7.66,4.98
		c-2.97,1.18-6.27,1.77-9.9,1.77h-18.37V258.8h18.37c3.63,0,6.93,0.59,9.9,1.77c2.97,1.18,5.52,2.84,7.66,4.98
		c2.13,2.14,3.78,4.72,4.95,7.72C753.33,276.28,753.92,279.6,753.92,283.23z M746.5,283.23c0-2.9-0.4-5.51-1.19-7.81
		c-0.79-2.3-1.92-4.25-3.39-5.85c-1.46-1.6-3.23-2.82-5.31-3.66c-2.08-0.84-4.4-1.26-6.96-1.26h-11.09v37.15h11.09
		c2.56,0,4.88-0.42,6.96-1.26s3.84-2.06,5.31-3.66c1.46-1.6,2.59-3.54,3.39-5.83C746.1,288.76,746.5,286.15,746.5,283.23z"/>
	<path class="st21" d="M770.45,307.65h-7.28V258.8h7.28V307.65z"/>
	<path class="st21" d="M822.51,283.87v19.05c-2.47,1.77-5.1,3.09-7.89,3.96s-5.83,1.31-9.12,1.31c-3.95,0-7.51-0.61-10.7-1.84
		c-3.19-1.22-5.9-2.94-8.15-5.14c-2.25-2.2-3.98-4.83-5.19-7.89c-1.21-3.06-1.82-6.43-1.82-10.11c0-3.7,0.58-7.08,1.75-10.16
		c1.17-3.07,2.84-5.7,5.02-7.89c2.18-2.19,4.81-3.89,7.91-5.1c3.1-1.21,6.57-1.82,10.43-1.82c1.95,0,3.76,0.15,5.43,0.44
		c1.67,0.29,3.22,0.71,4.64,1.26c1.43,0.54,2.75,1.2,3.96,1.96c1.21,0.76,2.34,1.62,3.39,2.57l-2.08,3.27
		c-0.32,0.52-0.74,0.85-1.26,0.99c-0.52,0.14-1.09,0.01-1.7-0.37c-0.59-0.34-1.24-0.74-1.96-1.19c-0.71-0.45-1.56-0.87-2.55-1.26
		s-2.14-0.71-3.45-0.99c-1.32-0.27-2.87-0.41-4.66-0.41c-2.68,0-5.09,0.44-7.25,1.31c-2.16,0.87-3.99,2.13-5.51,3.76
		c-1.52,1.63-2.69,3.6-3.5,5.9c-0.82,2.3-1.22,4.88-1.22,7.74c0,2.99,0.43,5.68,1.29,8.05s2.08,4.38,3.66,6.02
		c1.58,1.65,3.49,2.9,5.75,3.76c2.26,0.86,4.78,1.29,7.57,1.29c1.09,0,2.1-0.06,3.04-0.19c0.94-0.12,1.84-0.3,2.71-0.53
		c0.86-0.23,1.7-0.51,2.5-0.85c0.81-0.34,1.6-0.71,2.4-1.12v-10.24h-7.21c-0.45,0-0.82-0.14-1.11-0.41
		c-0.28-0.27-0.43-0.61-0.43-1.02v-4.12H822.51z"/>
	<path class="st21" d="M862.72,301.77l-0.03,5.89h-30.28V258.8h30.28v5.89h-23v15.48h18.51v5.68h-18.51v15.92H862.72z"/>
	<path class="st21" d="M912.09,258.8l-19.87,48.86h-6.5l-19.87-48.86h5.78c0.63,0,1.15,0.16,1.55,0.48c0.4,0.32,0.7,0.73,0.9,1.23
		l13.2,33.21c0.32,0.82,0.63,1.71,0.94,2.69c0.31,0.98,0.58,2,0.83,3.06c0.23-1.07,0.48-2.09,0.75-3.06
		c0.27-0.97,0.57-1.87,0.88-2.69l13.17-33.21c0.16-0.45,0.45-0.85,0.87-1.19c0.42-0.34,0.94-0.51,1.55-0.51H912.09z"/>
	<path class="st21" d="M962.41,283.23c0,3.65-0.58,7-1.75,10.05c-1.17,3.05-2.82,5.68-4.95,7.89c-2.13,2.21-4.68,3.93-7.66,5.15
		c-2.97,1.22-6.27,1.84-9.9,1.84c-3.61,0-6.9-0.61-9.88-1.84c-2.98-1.22-5.53-2.94-7.66-5.15c-2.12-2.21-3.77-4.84-4.95-7.89
		c-1.18-3.05-1.77-6.4-1.77-10.05c0-3.63,0.59-6.97,1.77-10.04c1.18-3.06,2.83-5.7,4.95-7.91c2.12-2.21,4.67-3.94,7.66-5.17
		c2.98-1.24,6.28-1.85,9.88-1.85c3.63,0,6.93,0.62,9.9,1.85c2.97,1.24,5.52,2.96,7.66,5.17c2.13,2.21,3.78,4.85,4.95,7.91
		C961.82,276.25,962.41,279.6,962.41,283.23z M954.99,283.23c0-2.9-0.4-5.51-1.19-7.83c-0.79-2.31-1.92-4.28-3.39-5.89
		c-1.46-1.61-3.23-2.85-5.31-3.71c-2.08-0.86-4.4-1.29-6.96-1.29c-2.56,0-4.88,0.43-6.96,1.29s-3.85,2.1-5.32,3.71
		c-1.47,1.61-2.61,3.57-3.4,5.89s-1.19,4.92-1.19,7.83c0,2.93,0.4,5.54,1.19,7.84s1.93,4.26,3.4,5.87c1.47,1.61,3.25,2.84,5.32,3.69
		s4.39,1.28,6.96,1.28c2.56,0,4.88-0.42,6.96-1.28c2.08-0.85,3.84-2.08,5.31-3.69c1.46-1.61,2.59-3.57,3.39-5.87
		C954.59,288.77,954.99,286.15,954.99,283.23z"/>
</g>
</svg>
